<svg id="Layer_1" data-name="Layer 1" xmlns="http://www.w3.org/2000/svg" viewBox="0 0 128 128"><defs><style>.cls-1{fill:#fbe9d0;}.cls-1,.cls-2,.cls-3,.cls-4,.cls-6{stroke:#383f51;stroke-linecap:round;stroke-linejoin:round;stroke-width:2px;}.cls-2,.cls-7{fill:none;}.cls-3{fill:#aedefc;}.cls-4{fill:#fff;}.cls-5,.cls-6{fill:#8b91a8;}</style></defs><title>Death</title><path class="cls-1" d="M51,104c0,11.6-1.12,21-2.5,21S46,115.6,46,104Z"/><path class="cls-1" d="M69,104c0,11.6-1.12,21-2.5,21S64,115.6,64,104Z"/><path class="cls-1" d="M59,29c-9.39,0-17,7.13-17,15.93A15,15,0,0,0,57,60c8.84,0,16-6.75,16-15.07C73,36.13,66.73,29,59,29Z"/><path class="cls-2" d="M52,51a3.19,3.19,0,0,0,3,2,3,3,0,0,0,2-1"/><path class="cls-3" d="M97,24,92.3,44.35C86.62,24.08,73.87,8.47,56,3,71.72,3,86.08,10.93,97,24Z"/><line class="cls-2" x1="97" y1="24" x2="80" y2="97"/><path class="cls-4" d="M69,38c-4.42,0-8,4.48-8,10a5,5,0,0,0,5,5c4.42,0,8-4,8-9C74,40.69,71.76,38,69,38Z"/><path class="cls-3" d="M69,41.1A3.8,3.8,0,0,1,65.31,45,2.24,2.24,0,0,1,63,42.83a4.94,4.94,0,0,1,.41-2,7.86,7.86,0,0,1,3.07-2.34h.21A2.46,2.46,0,0,1,69,41.1Z"/><path class="cls-3" d="M72,41.8A7.29,7.29,0,0,1,64.62,49,4.89,4.89,0,0,1,61,47.49C61.22,42.2,64.72,38,69,38a4.3,4.3,0,0,1,1.51.28A4.82,4.82,0,0,1,72,41.8Z"/><path class="cls-3" d="M72,41.8A7.29,7.29,0,0,1,64.62,49,4.89,4.89,0,0,1,61,47.49C61.22,42.2,64.72,38,69,38a4.3,4.3,0,0,1,1.51.28A4.82,4.82,0,0,1,72,41.8Z"/><polygon class="cls-3" points="72 41.8 72 41.8 72 41.8 72 41.8"/><path class="cls-3" d="M72,41.8A7.29,7.29,0,0,1,64.62,49,4.89,4.89,0,0,1,61,47.49C61.22,42.2,64.72,38,69,38a4.3,4.3,0,0,1,1.51.28A4.82,4.82,0,0,1,72,41.8Z"/><polygon class="cls-3" points="72 41.8 72 41.8 72 41.8 72 41.8"/><path class="cls-3" d="M69,41.1A3.8,3.8,0,0,1,65.31,45,2.24,2.24,0,0,1,63,42.83a4.94,4.94,0,0,1,.41-2,7.86,7.86,0,0,1,3.07-2.34h.21A2.46,2.46,0,0,1,69,41.1Z"/><polygon class="cls-3" points="69 41.1 69 41.1 69 41.1 69 41.1"/><path class="cls-5" d="M69,41.1A3.8,3.8,0,0,1,65.31,45,2.24,2.24,0,0,1,63,42.83a4.94,4.94,0,0,1,.41-2,7.86,7.86,0,0,1,3.07-2.34h.21A2.46,2.46,0,0,1,69,41.1Z"/><path class="cls-2" d="M69,41.1A3.8,3.8,0,0,1,65.31,45,2.24,2.24,0,0,1,63,42.83a4.94,4.94,0,0,1,.41-2,7.86,7.86,0,0,1,3.07-2.34h.21A2.46,2.46,0,0,1,69,41.1Z"/><polygon class="cls-2" points="69 41.1 69 41.1 69 41.1 69 41.1"/><path class="cls-4" d="M50,33c-4.42,0-8,4.48-8,10a5,5,0,0,0,5,5c4.42,0,8-4,8-9C55,35.69,52.76,33,50,33Z"/><path class="cls-3" d="M50,36.1A3.8,3.8,0,0,1,46.31,40,2.24,2.24,0,0,1,44,37.83a4.94,4.94,0,0,1,.41-2,7.86,7.86,0,0,1,3.07-2.34h.21A2.46,2.46,0,0,1,50,36.1Z"/><path class="cls-3" d="M53,36.8A7.29,7.29,0,0,1,45.62,44,4.89,4.89,0,0,1,42,42.49C42.22,37.2,45.72,33,50,33a4.3,4.3,0,0,1,1.51.28A4.82,4.82,0,0,1,53,36.8Z"/><path class="cls-3" d="M53,36.8A7.29,7.29,0,0,1,45.62,44,4.89,4.89,0,0,1,42,42.49C42.22,37.2,45.72,33,50,33a4.3,4.3,0,0,1,1.51.28A4.82,4.82,0,0,1,53,36.8Z"/><polygon class="cls-3" points="53 36.8 53 36.8 53 36.8 53 36.8"/><path class="cls-3" d="M53,36.8A7.29,7.29,0,0,1,45.62,44,4.89,4.89,0,0,1,42,42.49C42.22,37.2,45.72,33,50,33a4.3,4.3,0,0,1,1.51.28A4.82,4.82,0,0,1,53,36.8Z"/><polygon class="cls-3" points="53 36.8 53 36.8 53 36.8 53 36.8"/><path class="cls-3" d="M50,36.1A3.8,3.8,0,0,1,46.31,40,2.24,2.24,0,0,1,44,37.83a4.94,4.94,0,0,1,.41-2,7.86,7.86,0,0,1,3.07-2.34h.21A2.46,2.46,0,0,1,50,36.1Z"/><polygon class="cls-3" points="50 36.1 50 36.1 50 36.1 50 36.1"/><path class="cls-5" d="M50,36.1A3.8,3.8,0,0,1,46.31,40,2.24,2.24,0,0,1,44,37.83a4.94,4.94,0,0,1,.41-2,7.86,7.86,0,0,1,3.07-2.34h.21A2.46,2.46,0,0,1,50,36.1Z"/><path class="cls-2" d="M50,36.1A3.8,3.8,0,0,1,46.31,40,2.24,2.24,0,0,1,44,37.83a4.94,4.94,0,0,1,.41-2,7.86,7.86,0,0,1,3.07-2.34h.21A2.46,2.46,0,0,1,50,36.1Z"/><polygon class="cls-2" points="50 36.1 50 36.1 50 36.1 50 36.1"/><path class="cls-6" d="M84.57,74.7a35.1,35.1,0,0,0-14.64-9.82C77.14,62.12,82,56.94,82,51c0-17.67-9.87-32-22-32C46,19,32,37,32,47c0,3.8,3.27,9.37,8.65,13.66A35.87,35.87,0,0,0,31,85a57.31,57.31,0,0,0,5.86,25.28A58.64,58.64,0,0,0,57.33,114a36.15,36.15,0,0,0,19.43-5.63,62,62,0,0,1-.76-9.7A37.4,37.4,0,0,1,84.57,74.7ZM59,29c7.73,0,14,7.13,14,15.93C73,53.25,65.84,60,57,60A15,15,0,0,1,42,44.93C42,36.13,49.61,29,59,29Z"/><rect class="cls-7" width="128" height="128"/></svg>