<svg id="Layer_1" data-name="Layer 1" xmlns="http://www.w3.org/2000/svg" viewBox="0 0 128 128"><defs><style>.cls-1{fill:#f1c550;}.cls-1,.cls-2,.cls-3,.cls-4{stroke:#383f51;stroke-linecap:round;stroke-linejoin:round;}.cls-1,.cls-2,.cls-3{stroke-width:2px;}.cls-2{fill:#ff7d7d;}.cls-3,.cls-5{fill:none;}.cls-4{fill:#596e79;stroke-width:1.93px;}</style></defs><title>Stitched doll</title><path class="cls-1" d="M80,102c0,11.6-1.12,21-2.5,21S75,113.6,75,102Z"/><path class="cls-1" d="M66,104c0,11.6-1.12,21-2.5,21S61,115.6,61,104Z"/><path class="cls-2" d="M86,74s1,9,1,26a8,8,0,0,1-5.41,7.57l-.21.07C78,108.75,68.81,109,60,109A11,11,0,0,1,49,98c0-15,2-22,2-22a17.89,17.89,0,0,0-12,5c1.54-9.43,10-17.28,20.55-19.39A16.31,16.31,0,0,1,68.42,59,27.74,27.74,0,0,1,94,77,14.33,14.33,0,0,0,86,74Z"/><path class="cls-1" d="M93,38c0,15.46-13.43,28-30,28C48.09,66,36,55.7,36,43,36,25,45.51,9.41,59,3a11.32,11.32,0,0,0-3,7,12,12,0,0,1,3-3,12.1,12.1,0,0,1,5-2,10.6,10.6,0,0,0-1,5,10.47,10.47,0,0,0,1,4c0-3,3-5,3-5,0,2,5.86,6,9.56,7.59l.29.12C86.45,20.71,93,28.74,93,38Z"/><path class="cls-3" d="M50,36c5-6,19-15,34-15"/><path class="cls-3" d="M63,55c1.82,1.33,8.18,1.33,10,0"/><circle class="cls-4" cx="80.5" cy="43.5" r="3.5"/><circle class="cls-4" cx="56.5" cy="44.5" r="3.5"/><line class="cls-3" x1="73" y1="20" x2="77" y2="24"/><line class="cls-3" x1="63" y1="22" x2="69" y2="28"/><line class="cls-3" x1="55" y1="26" x2="61" y2="32"/><path class="cls-3" d="M61,98c8.94-4,17.36-10.73,25-20"/><line class="cls-3" x1="68" y1="90" x2="73" y2="95"/><line class="cls-3" x1="73" y1="86" x2="78" y2="91"/><line class="cls-3" x1="78" y1="82" x2="83" y2="87"/><line class="cls-3" x1="63" y1="94" x2="67" y2="98"/><rect class="cls-5" width="128" height="128"/></svg>