<svg id="Layer_1" data-name="Layer 1" xmlns="http://www.w3.org/2000/svg" viewBox="0 0 128 128"><defs><style>.cls-1{fill:#aedefc;}.cls-1,.cls-2,.cls-4,.cls-5{stroke:#383f51;stroke-linecap:round;stroke-linejoin:round;stroke-width:2px;}.cls-2,.cls-3{fill:#fbe9d0;}.cls-4,.cls-6{fill:none;}.cls-5{fill:#57617d;}</style></defs><title>Poison</title><path class="cls-1" d="M64,18H47.32A4.26,4.26,0,0,0,43,22.2,6.9,6.9,0,0,0,50,29l1.9,18.06h0A38.16,38.16,0,0,0,28.65,63.42,47.92,47.92,0,0,0,21,89.56a28.73,28.73,0,0,0,6.77,19C37,119.11,50.36,124.17,64,124c13.64.18,27-4.89,36.23-15.43a28.73,28.73,0,0,0,6.77-19,47.92,47.92,0,0,0-7.65-26.14A38.16,38.16,0,0,0,76.1,47.06L78,29a6.9,6.9,0,0,0,7-6.8A4.26,4.26,0,0,0,80.68,18H64"/><path class="cls-2" d="M86.85,70.89A49.44,49.44,0,0,1,64,76a49.44,49.44,0,0,1-22.85-5.11A48,48,0,0,0,37,90.56a30.09,30.09,0,0,0,2.64,12.54C44,107,53,111,64,111s20-4,24.36-7.9A30.09,30.09,0,0,0,91,90.56,48,48,0,0,0,86.85,70.89Z"/><path class="cls-2" d="M54,8l2,17.74C57,27,60,28,64,28s7-1,8-2.26L74,8"/><path class="cls-3" d="M74,8c0,5.33-20,5.33-20,0S74,2.67,74,8Z"/><path class="cls-4" d="M74,8c0,5.33-20,5.33-20,0S74,2.67,74,8Z"/><path class="cls-4" d="M50,90a21.42,21.42,0,0,1,3.34-6.29A1.54,1.54,0,0,1,54.57,83c.68.07.9.86,1,1.49A14.81,14.81,0,0,0,58.52,91"/><path class="cls-4" d="M77.52,89a21.42,21.42,0,0,0-3.34-6.29A1.54,1.54,0,0,0,73,81.92c-.68.07-.9.86-1,1.49A14.81,14.81,0,0,1,69,90"/><path class="cls-4" d="M52,98a9.5,9.5,0,0,1,1.06-4,1.86,1.86,0,0,1,.67-.81,2,2,0,0,1,1.72.18l3.27,1.41"/><path class="cls-4" d="M77,96.9a9.5,9.5,0,0,0-1.06-4,1.86,1.86,0,0,0-.67-.81,2,2,0,0,0-1.72.18l-3.27,1.41"/><path class="cls-4" d="M55,102a26.83,26.83,0,0,1,5-6"/><path class="cls-4" d="M74,102a26.83,26.83,0,0,0-5-6"/><circle class="cls-5" cx="64" cy="92" r="6"/><rect class="cls-6" width="128" height="128"/></svg>