<?xml version="1.0" ?><svg style="enable-background:new 0 0 512 512;" version="1.1" viewBox="0 0 512 512" xml:space="preserve" xmlns="http://www.w3.org/2000/svg" xmlns:xlink="http://www.w3.org/1999/xlink"><g id="_x31_2_x2C__Bacterium_x2C__blood_x2C__germs_x2C__microbe_x2C__virus"><g id="XMLID_4175_"><g id="XMLID_4176_"><path d="M258.5,48.5c113.22,0,205,91.78,205,205c0,113.22-91.78,205-205,205     s-205-91.78-205-205C53.5,140.28,145.28,48.5,258.5,48.5z" id="XMLID_4309_" style="fill:#3F4751;"/><path d="M258.5,93.5c88.37,0,160,71.63,160,160s-71.63,160-160,160s-160-71.63-160-160     S170.13,93.5,258.5,93.5z" id="XMLID_4307_" style="fill:#FFFFFF;"/><circle cx="453.5" cy="58.5" id="XMLID_365_" r="30" style="fill:#5CBEFF;"/><circle cx="68.5" cy="443.5" id="XMLID_364_" r="40" style="fill:#5CBEFF;"/><path d="M223.5,128.5c13.81,0,25,11.19,25,25s-11.19,25-25,25s-25-11.19-25-25     S209.69,128.5,223.5,128.5z" id="XMLID_363_" style="fill:#07CC66;"/><path d="M153.5,228.5c11.05,0,20,8.95,20,20s-8.95,20-20,20s-20-8.95-20-20     S142.45,228.5,153.5,228.5z" id="XMLID_362_" style="fill:#07CC66;"/><circle cx="476" cy="386" id="XMLID_361_" r="7.5" style="fill:#07CC66;"/><circle cx="401" cy="456" id="XMLID_360_" r="7.5" style="fill:#07CC66;"/><circle cx="386" cy="36" id="XMLID_359_" r="7.5" style="fill:#07CC66;"/><path d="M313.5,153.5c8.28,0,15,6.72,15,15s-6.72,15-15,15c-8.28,0-15-6.72-15-15     S305.22,153.5,313.5,153.5z" id="XMLID_358_" style="fill:#FFD400;"/><path d="M186,333.5c6.9,0,12.5,5.6,12.5,12.5s-5.6,12.5-12.5,12.5s-12.5-5.6-12.5-12.5     S179.1,333.5,186,333.5z" id="XMLID_357_" style="fill:#FFD400;"/><circle cx="156" cy="466" id="XMLID_356_" r="7.5" style="fill:#07CC66;"/><circle cx="141" cy="36" id="XMLID_355_" r="7.5" style="fill:#07CC66;"/><circle cx="56" cy="91" id="XMLID_354_" r="7.5" style="fill:#07CC66;"/><circle cx="41" cy="341" id="XMLID_353_" r="7.5" style="fill:#07CC66;"/><path d="M288.22,353.5c-2.761,0-5-2.238-5-5v-16.67c0-2.762,2.239-5,5-5s5,2.238,5,5     v16.67C293.22,351.262,290.981,353.5,288.22,353.5z" id="XMLID_352_" style="fill:#CD2738;"/><path d="M288.22,250.17c-2.761,0-5-2.239-5-5V228.5c0-2.761,2.239-5,5-5s5,2.239,5,5     v16.67C293.22,247.931,290.981,250.17,288.22,250.17z" id="XMLID_351_" style="fill:#CD2738;"/><path d="M245.79,335.93c-1.28,0-2.559-0.488-3.536-1.465c-1.953-1.952-1.953-5.118,0-7.07     l11.79-11.79c1.953-1.953,5.118-1.953,7.071,0c1.953,1.952,1.953,5.118,0,7.07l-11.79,11.79     C248.349,335.441,247.07,335.93,245.79,335.93z" id="XMLID_350_" style="fill:#CD2738;"/><path d="M322.95,266.95c-1.28,0-2.559-0.488-3.536-1.465c-1.953-1.952-1.953-5.118,0-7.07     l18.6-18.601c1.953-1.952,5.118-1.952,7.071,0c1.953,1.953,1.953,5.119,0,7.071l-18.6,18.6     C325.509,266.462,324.23,266.95,322.95,266.95z" id="XMLID_349_" style="fill:#CD2738;"/><path d="M244.88,293.8h-22.72c-2.761,0-5-2.238-5-5c0-2.762,2.239-5,5-5h22.72     c2.761,0,5,2.238,5,5C249.88,291.561,247.641,293.8,244.88,293.8z" id="XMLID_348_" style="fill:#CD2738;"/><path d="M348.22,293.5h-16.67c-2.761,0-5-2.238-5-5s2.239-5,5-5h16.67     c2.761,0,5,2.238,5,5S350.981,293.5,348.22,293.5z" id="XMLID_347_" style="fill:#CD2738;"/><path d="M330.64,335.93c-1.28,0-2.561-0.488-3.537-1.466l-11.78-11.79     c-1.952-1.953-1.95-5.119,0.003-7.071c1.953-1.952,5.119-1.951,7.071,0.003l11.78,11.79c1.952,1.953,1.95,5.119-0.003,7.071     C333.198,335.442,331.919,335.93,330.64,335.93z" id="XMLID_346_" style="fill:#CD2738;"/><path d="M257.58,262.86c-1.28,0-2.559-0.488-3.536-1.465l-11.79-11.79     c-1.953-1.953-1.953-5.119,0-7.071c1.954-1.952,5.119-1.951,7.071,0l11.79,11.791c1.953,1.952,1.953,5.118,0,7.07     C260.139,262.372,258.859,262.86,257.58,262.86z" id="XMLID_345_" style="fill:#CD2738;"/><path d="M288.22,245.17c58.056,0,56.54,86.66,0,86.66c-11.96,0-22.8-4.85-30.64-12.691     c-7.78-7.779-12.62-18.489-12.7-30.34c0-0.1,0-0.2,0-0.3c0-11.96,4.85-22.8,12.7-30.64     C265.42,250.02,276.26,245.17,288.22,245.17z" id="XMLID_4238_" style="fill:#D94556;"/><path d="M278.22,298.5c3.68,0,6.66,2.98,6.66,6.67c0,3.68-2.98,6.66-6.66,6.66     c-3.68,0-6.67-2.98-6.67-6.66C271.55,301.48,274.54,298.5,278.22,298.5z" id="XMLID_343_" style="fill:#FFD400;"/><path d="M298.22,265.17c5.52,0,10,4.47,10,10c0,5.521-4.48,10-10,10     c-5.53,0-10-4.479-10-10C288.22,269.64,292.69,265.17,298.22,265.17z" id="XMLID_342_" style="fill:#FFD400;"/><path d="M245.79,231.93c3.91,3.91,3.91,10.24,0,14.14c-3.9,3.91-10.24,3.91-14.14,0     c-3.91-3.9-3.91-10.23,0-14.14C235.55,228.03,241.89,228.03,245.79,231.93z" id="XMLID_341_" style="fill:#D94556;"/><path d="M344.79,330.93c3.9,3.9,3.9,10.23,0,14.141c-3.91,3.899-10.24,3.899-14.15,0     c-3.9-3.91-3.9-10.24,0-14.141C334.55,327.02,340.88,327.02,344.79,330.93z" id="XMLID_340_" style="fill:#D94556;"/><path d="M288.22,208.5c5.52,0,10,4.48,10,10s-4.48,10-10,10c-5.53,0-10-4.48-10-10     S282.69,208.5,288.22,208.5z" id="XMLID_339_" style="fill:#D94556;"/><path d="M363.88,221.02c6.16,6.17,6.16,16.16,0,22.33c-6.17,6.16-16.16,6.16-22.33,0     c-6.16-6.17-6.16-16.16,0-22.33C347.72,214.86,357.71,214.86,363.88,221.02z" id="XMLID_338_" style="fill:#D94556;"/><path d="M245.79,330.93c3.91,3.9,3.91,10.23,0,14.141c-3.9,3.899-10.24,3.899-14.14,0     c-3.91-3.91-3.91-10.24,0-14.141C235.55,327.02,241.89,327.02,245.79,330.93z" id="XMLID_337_" style="fill:#D94556;"/><path d="M208.52,275.17c7.53,0,13.64,6.1,13.64,13.63s-6.11,13.641-13.64,13.641     s-13.64-6.11-13.64-13.641S200.99,275.17,208.52,275.17z" id="XMLID_336_" style="fill:#D94556;"/><path d="M358.22,278.5c5.52,0,10,4.48,10,10s-4.48,10-10,10c-5.53,0-10-4.48-10-10     S352.69,278.5,358.22,278.5z" id="XMLID_335_" style="fill:#D94556;"/><path d="M288.22,348.5c5.52,0,10,4.48,10,10s-4.48,10-10,10c-5.53,0-10-4.48-10-10     S282.69,348.5,288.22,348.5z" id="XMLID_334_" style="fill:#D94556;"/></g></g></g><g id="Layer_1"/></svg>